<svg width="770" height="24" viewBox="0 0 770 24" fill="none" xmlns="http://www.w3.org/2000/svg">
<path d="M750.783 0C741.142 0 741.142 9.88235 731.567 9.88235C721.992 9.88235 721.925 0 712.35 0C702.776 0 702.709 9.88235 693.134 9.88235C683.492 9.88235 683.492 0 673.85 0C664.209 0 664.209 9.88235 654.634 9.88235C644.992 9.88235 644.992 0 635.417 0C625.776 0 625.776 9.88235 616.201 9.88235C606.626 9.88235 606.358 0 596.783 0C587.142 0 587.142 9.88235 577.567 9.88235C567.992 9.88235 567.858 0 558.283 0C548.642 0 548.642 9.88235 539.067 9.88235C529.425 9.88235 529.425 0 519.783 0C510.142 0 510.142 9.88235 500.567 9.88235C490.925 9.88235 490.925 0 481.35 0C471.776 0 471.642 9.88235 462 9.88235C452.358 9.88235 452.358 0 442.783 0C433.142 0 433.142 9.88235 423.567 9.88235C413.925 9.88235 413.925 0 404.283 0C394.642 0 394.642 9.88235 385.067 9.88235C375.425 9.88235 375.425 0 365.85 0C356.209 0 356.209 9.88235 346.634 9.88235C336.992 9.88235 336.992 0 327.417 0C317.776 0 317.776 9.88235 308.134 9.88235C298.492 9.88235 298.492 0 288.85 0C279.209 0 279.209 9.88235 269.567 9.88235C259.925 9.88235 259.925 0 250.283 0C240.642 0 240.642 9.88235 231 9.88235C221.358 9.88235 221.358 0 211.717 0C202.075 0 202.075 9.88235 192.433 9.88235C182.791 9.88235 182.791 0 173.15 0C163.508 0 163.508 9.88235 153.933 9.88235C144.291 9.88235 144.291 0 134.65 0C125.008 0 125.008 9.88235 115.366 9.88235C105.724 9.88235 105.724 0 96.0826 0C86.4409 0 86.4409 9.88235 76.7991 9.88235C67.1574 9.88235 67.1574 0 57.5157 0C48.1417 0 48.1417 9.88235 38.5 9.88235C28.8583 9.88235 28.8583 0 19.2835 0C9.70869 0 9.64174 9.88235 0 9.88235V24H770V9.88235C760.358 9.88235 760.358 0 750.783 0Z" fill="white"/>
</svg>
